<?xml version="1.0" encoding="UTF-8"?>
<!-- Generated by Pixelmator Pro 3.6.4 -->
<svg width="2268" height="2268" viewBox="0 0 2268 2268" xmlns="http://www.w3.org/2000/svg">
    <g id="Associer">
        <path id="Trac" fill="#000000" stroke="none" d="M 2105.571045 1461.658447 C 2105.43335 1462.134766 2099.5 1480.388672 2099.170654 1481.154175 C 2095.805176 1488.973145 2091.985352 1496.597168 2088.649902 1504.427979 C 2086.822754 1508.717163 2069.487061 1547.599609 2062.806152 1560.562988 C 2055.711426 1574.328613 2048.575928 1588.018066 2040.335815 1601.227051 C 2030.87561 1616.392578 2020.763306 1631.108154 2010.857178 1645.945068 C 2005.393311 1654.12915 1976.673706 1686.927246 1970.1521 1695.80957 C 1965.080688 1702.716553 1959.619141 1709.354248 1954.060181 1715.881348 C 1949.171753 1721.621338 1905.260742 1762.574829 1904.296143 1763.593628 C 1893.376099 1775.126953 1880.803467 1784.561035 1867.574585 1793.268799 C 1860.296631 1798.05957 1853.9552 1804.380127 1846.416138 1808.638794 C 1837.971802 1813.408691 1787.703979 1845.264526 1778.968994 1850.13208 C 1771.471069 1854.310303 1595.315674 1926.880737 1583.140625 1928.625732 C 1578.798462 1929.248047 1574.068848 1930.074951 1570.509155 1932.357178 C 1567.505493 1934.282715 1564.723267 1938.187622 1563.973633 1941.674683 C 1562.068848 1950.535156 1562.229126 1959.889038 1559.865967 1968.584229 C 1558.278931 1974.422607 1554.074463 1998.596191 1549.376343 2013.237671 C 1548.215332 2016.856079 1539.147461 2039.770142 1536.31897 2046.146973 C 1534.232056 2050.852051 1528.796997 2064.48291 1528.032227 2065.848389 C 1520.912964 2078.561035 1512.573364 2092.390625 1500.91748 2102.769043 C 1500.25293 2103.361084 1485.468994 2121.020264 1476.59668 2127.19165 C 1472.771729 2129.852295 1471.891724 2134.599121 1474.863647 2138.070801 C 1483.264526 2147.883301 1488.673706 2160.828613 1490.531738 2171.725586 C 1491.469238 2184.350342 1491.655151 2206.48877 1490.652954 2209.413818 C 1490.054199 2215.077881 1488.398804 2224.091309 1484.978882 2230.188232 C 1481.231934 2236.86792 1475.402832 2242.633301 1469.616333 2247.835693 C 1464.917358 2252.060791 1459.325928 2255.939697 1453.44104 2258.052002 C 1444.07666 2261.412598 1434.880005 2265.603027 1424.398071 2265.614014 C 1415.565063 2265.623047 1406.745361 2267.804932 1397.898193 2267.989014 C 1390.713867 2268.137939 1357.763306 2264.08374 1349.518555 2261.819824 C 1343.144043 2260.069092 1336.439209 2258.772949 1330.655884 2255.778076 C 1319.594971 2250.051025 1308.860107 2243.603516 1298.423706 2236.790771 C 1291.060425 2231.983887 1284.426514 2226.062988 1277.436523 2220.678955 C 1275.42981 2219.133301 1273.186401 2217.876709 1271.276123 2216.227051 C 1265.816406 2211.512695 1260.593262 2206.519531 1255.057007 2201.899414 C 1243.398804 2192.169922 1230.841797 2183.665039 1217.327881 2176.795654 C 1210.402588 2173.275635 1189.266113 2170.023926 1186.650391 2169.115479 C 1182.285278 2167.599365 959.88623 2156.856689 957.63385 2156.62915 C 950.742188 2155.933594 944.74408 2158.208008 939.39093 2162.108398 C 934.751038 2165.488281 930.485352 2169.38916 926.113464 2173.128662 C 910.433289 2186.540771 895.347717 2200.599854 878.334961 2212.499023 C 872.119446 2216.84668 866.011475 2221.41626 859.525879 2225.40625 C 855.046448 2228.161621 850.461487 2230.750244 845.877014 2233.330322 C 841.547974 2235.767334 837.318787 2238.477295 832.763 2240.396973 C 821.970032 2244.945068 811.161072 2249.460938 799.054443 2249.467041 C 792.15802 2249.470459 785.323792 2249.589355 778.333618 2250.753662 C 770.864868 2251.998291 762.710144 2250.706787 755.109985 2249.21875 C 743.145813 2246.876465 731.291504 2243.799316 719.579529 2240.385498 C 704.111084 2235.876953 691.87323 2226.047852 687.175903 2210.925537 C 682.018616 2194.32251 683.267883 2177.351074 694.386902 2162.18335 C 700.125244 2154.355713 708.347839 2149.460938 714.726379 2142.487549 C 716.821472 2140.196777 719.825195 2138.749023 721.985535 2136.503906 C 726.256104 2132.065918 726.123108 2127.860107 721.004333 2124.241211 C 706.092529 2113.698975 693.302612 2100.813477 681.08429 2087.481934 C 668.704895 2073.974609 656.052612 2060.333008 646.142151 2045.050171 C 635.276062 2028.293213 627.428467 2009.576294 621.239197 1990.39978 C 620.38208 1987.744141 615.891663 1967.564941 614.906006 1959.887451 C 614.014526 1952.942871 612.367981 1945.692749 610.589294 1938.676758 C 609.744751 1935.345459 607.510925 1914.396484 606.88269 1895.636841 C 606.804443 1893.301147 607.831421 1849.917725 608.338562 1844.21167 C 608.710754 1840.023438 604.930908 1840.400513 603.910461 1841.487183 C 600.932007 1844.660156 556.532288 1854.635986 551.857544 1853.467041 C 537.169373 1849.795288 521.592224 1847.089722 509.643677 1837.368652 C 497.256348 1827.290771 485.019135 1816.10437 485.238251 1797.7323 C 485.260071 1795.90625 486.549957 1751.318359 487.081024 1749.115479 C 489.110596 1740.697998 490.132355 1732.098877 492.168732 1723.639404 C 494.576752 1713.635864 497.94516 1704.039795 501.124603 1694.326904 C 504.720306 1683.342651 560.153015 1564.838379 569.297852 1549.673584 C 577.214539 1536.545288 585.095337 1523.300537 594.210754 1511.011475 C 608.45105 1491.813477 620.713684 1471.306641 634.69574 1451.951904 C 643.883606 1439.233398 652.439331 1426.056885 661.19574 1413.030029 C 662.251587 1411.459106 662.607788 1409.427368 663.612061 1407.810303 C 665.333374 1405.039063 664.926331 1403.098877 661.587769 1402.74707 C 652.289429 1401.76709 644.219849 1397.512085 635.837585 1393.866333 C 617.46582 1385.875977 598.849854 1378.448242 580.437927 1370.547607 C 574.378784 1367.947754 568.698547 1364.47876 562.739685 1361.627441 C 556.301208 1358.546265 549.666382 1355.87207 543.250488 1352.74707 C 535.824097 1349.129639 528.559326 1345.181885 521.193481 1341.438232 C 515.307373 1338.446533 509.177979 1335.881104 503.500488 1332.541626 C 486.99469 1322.833008 469.949005 1314.150146 453.965332 1303.387085 C 443.4729 1296.321655 432.272614 1289.960205 421.451233 1283.195068 C 415.483002 1279.464111 381.373596 1254.145996 377.153961 1250.69751 C 371.353668 1245.957275 366.145081 1240.501099 360.526672 1235.52832 C 349.862457 1226.089111 338.644745 1217.22876 328.46814 1207.296631 C 315.239441 1194.385864 302.802582 1180.663818 290.020752 1167.2948 C 289.19986 1166.436035 288.290253 1165.657837 287.510468 1164.764648 C 279.514679 1155.605103 254.305161 1125.993286 250.641373 1122.146973 C 242.283569 1113.373413 235.797958 1102.961792 228.492722 1093.260376 C 222.537582 1085.351929 216.379883 1077.568481 210.887497 1069.345337 C 201.597137 1055.435425 192.584717 1041.330933 183.789017 1027.102173 C 176.505539 1015.319458 169.491776 1003.3573 162.741394 991.261108 C 154.407013 976.326538 145.947571 961.420532 138.567108 946.01123 C 134.54953 937.623169 130.032455 929.402344 126.93206 920.536133 C 124.85511 914.596924 124.333519 908.477417 123.465576 902.368042 C 122.799385 897.678833 125.008461 895.163818 129.024796 892.784058 C 143.832657 884.010498 159.63945 876.883667 173.286667 866.176147 C 176.849167 863.380981 180.718811 860.957031 184.140228 858.00647 C 194.245148 849.292114 205.121735 841.230591 213.976959 831.369507 C 225.45018 818.59314 237.080841 805.930908 247.245239 791.86853 C 262.488983 770.779175 276.265167 748.967773 287.975128 725.773804 C 293.564545 714.702759 299.975586 704.026245 305.168579 692.78064 C 311.608276 678.834961 317.106049 664.456787 323.143494 650.322144 C 325.732056 644.261963 328.829102 638.418091 331.392151 632.348145 C 337.798065 617.177368 344.049683 601.941284 350.324127 586.715332 C 353.227234 579.67041 352.258636 573.321045 346.627075 567.943604 C 341.646332 563.187622 338.251312 557.45874 335.163483 551.310181 C 330.822815 542.666992 325.519897 534.512451 320.828186 526.038452 C 317.49469 520.017578 313.990936 514.01416 311.445007 507.650269 C 306.347626 494.908447 290.892975 457.317749 288.721008 451.113281 C 284.084412 437.868164 278.949036 424.695313 275.764099 411.084351 C 273.992554 403.513672 263.416809 353.00415 263 347 C 262.592499 341.128906 261.345245 310.684082 261.376892 306.699097 C 261.49527 291.808838 261.613586 276.918579 261.769958 262.028564 C 261.785034 260.592651 265.028687 219.932861 265.175934 219.122559 C 270.542297 189.585693 273.947021 176.121826 275.290314 166.262939 C 276.393005 158.170166 279.739441 150.581299 281.56955 142.818359 C 283.286102 135.537109 284.780792 128.079346 286.888458 120.851563 C 289.971466 110.279297 293.801147 99.923828 296.841217 89.340332 C 301.890442 71.762695 310.022369 55.527832 318.433899 39.466064 C 325.491455 25.989746 335.921692 15.739746 351.208679 11.982422 C 362.061127 9.315186 373.097961 7.386963 384.075165 5.243896 C 414.091522 -0.616455 487.65744 1.01416 495.788025 1.840088 C 505.234131 2.799561 514.503113 5.391113 523.903564 6.943604 C 532.580505 8.376709 541.386597 9.063721 550.029663 10.655273 C 557.384705 12.009766 564.714844 13.790527 571.83551 16.071045 C 591.489197 22.365234 611.530151 27.844482 630.440247 35.931885 C 643.773376 41.634521 657.197144 47.384521 670.377686 53.595215 C 700.340759 67.713867 776.847168 119.670654 783.731506 124.255371 C 792.056213 129.799072 800.090088 135.545654 807.418091 142.390869 C 812.627686 147.257324 818.649414 151.243408 824.02124 155.950439 C 829.873413 161.078369 835.455444 164.272705 844.172241 162.444336 C 850.518494 161.113281 914.053589 151.756348 943.044861 147.795898 C 950.292725 146.805664 955.381531 146.152832 956.878052 146.046875 C 962.729736 145.632813 963.415588 144.487793 961.900024 138.616455 C 959.193787 128.131836 950.549866 73.851807 950.469788 72.294678 C 950.180176 66.65625 951.445557 64.232422 956.651428 64.135742 C 971.797485 63.854492 987.400085 61.774414 1001.979492 64.661621 C 1017.048462 67.645996 1032.394165 70.489746 1047.215942 75.556152 C 1059.79834 79.857178 1071.900635 84.829834 1083.750732 90.708008 C 1088.159302 92.89502 1092.991943 94.210449 1097.525391 96.168457 C 1100.301147 97.367188 1103.139282 98.697998 1105.489624 100.552246 C 1111.348755 105.174805 1116.310913 103.733398 1118.071289 96.519775 C 1118.345093 95.398193 1118.001343 94.140869 1118.126953 92.96582 C 1119.051758 84.311279 1123.6521 83.035645 1132.259766 81.36084 C 1143.252197 79.222168 1151.231812 85.697998 1160.715576 87.401855 C 1163.76416 87.949707 1166.256226 91.083496 1169.253052 92.508301 C 1200.593994 107.407227 1228.222168 128.276123 1257.276367 146.864014 C 1266.302856 152.638916 1276.20813 157.039551 1285.708618 162.074463 C 1296.914917 168.012939 1308.005493 174.18335 1319.351196 179.842285 C 1334.108032 187.202637 1349.200684 193.89502 1363.893066 201.377197 C 1374.477905 206.767822 1384.637329 212.992432 1395.002441 218.816895 C 1399.315552 221.240601 1403.186401 219.192139 1406.906494 217.297852 C 1417.21814 212.046875 1427.69519 207.054199 1437.64624 201.178955 C 1449.121826 194.403809 1461.804688 190.468262 1473.610596 184.747314 C 1486.809204 178.351563 1500.470337 173.315674 1514.143433 168.562256 C 1521.568848 165.980713 1550.085449 156.720703 1556.532227 154.671143 C 1560.220703 153.498535 1575.131226 150.033447 1584.119507 148.074219 C 1591.312866 146.506348 1619.019409 140.990479 1625.619019 140.758545 C 1633.336426 140.487305 1650.005493 137.163574 1650.877197 137.118896 C 1662.514404 136.52417 1690.660522 133.607422 1693.067993 133.679932 C 1696.698486 133.789551 1716.032837 132.955811 1721.868164 133.765137 C 1734.701904 135.54541 1747.548096 134.806885 1760.367432 135.469238 C 1770.60437 135.998047 1780.786377 137.659912 1790.980713 138.916992 C 1800.004395 140.029541 1809.113647 140.778076 1818 142.592529 C 1829.128906 144.864746 1840.056763 148.110596 1851.097168 150.83252 C 1854.896973 151.769043 1858.762451 152.972656 1862.616821 153.045898 C 1871.895508 153.221924 1879.421387 158.541992 1887.916748 160.924316 C 1894.552612 162.7854 1901.096191 164.855957 1907.627441 167.072998 C 1920.455078 171.427246 1931.953247 177.592773 1942.851074 185.439209 C 1950.652222 191.055908 1958.131714 196.935791 1962.642334 205.523926 C 1966.364258 212.61084 1975.546631 343.938843 1975.446533 351.168335 C 1975.381226 355.89563 1975.826172 383.120483 1973.313721 397.788574 C 1972.725708 401.221191 1958.055054 467.875977 1956.897705 472.135254 C 1955.298706 478.020264 1954.024414 483.998901 1952.266724 489.83374 C 1950.68335 495.09021 1948.838135 500.289917 1946.753052 505.368896 C 1942.158447 516.559692 1926.0979 556.569946 1921.572632 564.454102 C 1917.022217 572.382324 1912.693359 580.46582 1907.666138 588.084473 C 1902.761719 595.51709 1899.199951 603.662109 1894.473633 611.159912 C 1892.238403 614.706421 1890.080078 618.333374 1887.513184 621.633301 C 1880.526978 630.615479 1875.223389 638.296143 1868 648 C 1857.965698 661.47998 1846.59436 675.196411 1834.768066 687.015503 C 1832.369751 689.412476 1822.850586 700.290283 1820.378784 703.176147 C 1816.099609 708.172241 1812.133423 713.434692 1807.911865 718.481812 C 1805.899658 720.887817 1805.606079 722.609131 1808.295288 724.948242 C 1813.018311 729.055908 1825.084351 785.700439 1828.586914 795.779297 C 1833.083008 808.717407 1836.847168 822.295898 1839.497803 835.746094 C 1841.771851 847.285034 1844.71582 858.650757 1847.307129 870.086792 C 1849.370117 879.190552 1862.911621 927.479614 1867.275513 938.742676 C 1873.918091 955.886597 1880.856201 972.932129 1888.261475 989.758667 C 1893.022339 1000.576416 1898.026001 1011.45105 1904.372681 1021.371338 C 1915.89917 1039.387085 1929.562622 1055.812012 1945.287476 1070.445557 C 1948.257935 1073.209961 1950.678345 1073.508179 1954.516479 1071.815063 C 1968.88269 1065.477783 1981.959229 1057.159912 1994.483521 1047.782715 C 2005.767578 1039.334106 2017.347778 1031.281006 2028.762573 1023.005737 C 2030.848145 1021.493774 2032.785156 1019.773315 2034.761475 1018.114624 C 2042.259888 1011.821655 2049.820557 1005.600098 2057.202637 999.173584 C 2060.517334 996.287964 2063.377686 992.887207 2066.599609 989.886841 C 2073.435791 983.520264 2080.429199 977.322144 2087.248535 970.937988 C 2091.113037 967.319946 2094.678223 963.380493 2098.587158 959.814819 C 2099.231201 959.227295 2101.85083 959.458862 2102.040527 959.927124 C 2104.018555 964.803711 2116.271973 988.649414 2121.949707 1013.24353 C 2122.348877 1014.9729 2143.297607 1165.868164 2143.144287 1185.08313 C 2143.105225 1189.984375 2143.215576 1264.20874 2142.905762 1268.902954 C 2142.421875 1276.237427 2139.753662 1320.906006 2137.942139 1326.213379 C 2136.229736 1331.230347 2136.584717 1336.9375 2135.89502 1342.323853 C 2135.429932 1345.956299 2134.734375 1349.55957 2134.131104 1353.173828 C 2134.086426 1353.440918 2129.080078 1372.583008 2128.899902 1376.810791 C 2128.786865 1379.467285 2125.35376 1391.810791 2123.632568 1398.138428 C 2121.516357 1405.918945 2105.571045 1461.658447 2105.571045 1461.658447 Z M 545.925903 1747.61084 C 545.925903 1749.092285 548.687805 1804.336182 549.651917 1809.666748 C 549.867249 1810.857178 552.115173 1811.680054 553.427307 1812.672363 C 553.897644 1811.483643 554.320313 1810.272949 554.849548 1809.110962 C 555.647034 1807.360474 556.075684 1805.085327 557.434204 1804.006714 C 564.304993 1798.551758 571.375244 1793.341064 578.517944 1788.244019 C 579.485107 1787.554077 581.255066 1787.989258 582.653259 1787.90332 C 582.073181 1788.953369 581.750244 1790.355469 580.871704 1790.996948 C 574.968567 1795.306641 568.801086 1799.266479 563.040283 1803.752197 C 560.891907 1805.425171 559.798035 1808.387085 557.869385 1810.42627 C 555.947632 1812.458252 557.054199 1812.713623 558.862 1812.623779 C 559.931335 1812.570923 561.171326 1812.295898 562.002441 1811.675781 C 569.507568 1806.074707 576.916077 1800.344238 584.418518 1794.739746 C 585.488464 1793.940552 586.890869 1793.562012 588.171387 1793.072388 C 598.222168 1789.229248 604.032959 1781.888184 606.576172 1771.528076 C 609.348572 1760.234619 612.26239 1748.966309 615.502258 1737.799805 C 618.802063 1726.427368 622.236023 1715.070801 626.223877 1703.926514 C 631.216431 1689.975098 635.979309 1675.836426 642.37738 1662.516357 C 652.492004 1641.45874 663.401123 1620.786377 672.572388 1599.269043 C 673.483337 1597.131958 672.859131 1593.264282 677.091248 1593.575562 C 676.534607 1595.813965 676.101624 1598.092041 675.397888 1600.283081 C 673.295105 1606.831787 670.264099 1613.206787 669.125244 1619.909424 C 667.677673 1628.429199 661.377686 1704.011963 660.340759 1709.806885 C 658.071838 1722.487793 657.476013 1735.483398 656.498596 1748.373779 C 655.908997 1756.148071 652.964539 1802.684204 652.984375 1818.179688 C 653.0224 1847.937866 654.475342 1909.851807 654.687622 1911.000488 C 656.418701 1920.37085 658.027771 1929.769897 660.056335 1939.077148 C 662.542053 1950.481445 664.784668 1961.995361 668.235107 1973.119873 C 673.621521 1990.487061 680.543457 2007.286865 690.295715 2022.782104 C 697.403015 2034.074707 704.706665 2045.240356 714.117859 2054.774902 C 727.370178 2068.201172 740.266052 2082.065918 756.605652 2091.98584 C 767.289856 2098.472168 777.537598 2105.841064 788.71814 2111.306641 C 803.734314 2118.647217 819.298096 2124.964844 834.941772 2130.890625 C 845.492432 2134.887207 856.461853 2138.04541 867.499695 2140.359131 C 871.901245 2141.281982 877.007202 2141.733887 881.949768 2139.072021 C 895.993408 2131.509277 911.101501 2125.710938 924.438965 2117.119385 C 934.165466 2110.854492 943.687622 2108.14502 954.842957 2108.515137 C 990.822205 2109.708252 1026.862915 2106.548828 1062.826904 2110.241455 C 1072.624512 2111.247314 1082.519775 2110.907715 1092.407227 2111.743652 C 1106.761841 2112.95752 1121.161865 2113.364014 1135.469849 2115.584229 C 1146.770996 2117.337891 1158.227783 2118.098145 1169.619751 2119.256348 C 1181.599854 2120.474121 1193.679932 2121.06665 1205.5354 2123.026611 C 1213.633301 2124.365479 1222.025879 2126.43042 1229.215698 2130.208984 C 1242.224854 2137.046143 1254.300049 2145.637695 1267.049561 2153.004883 C 1271.499146 2155.575928 1276.733398 2157.990479 1281.704224 2158.197754 C 1290.922241 2158.582031 1300.514038 2158.565186 1309.409546 2156.446045 C 1332.19397 2151.018555 1354.16687 2142.897461 1375.080933 2132.251465 C 1388.842773 2125.246094 1402.727661 2118.330322 1415.790405 2110.150146 C 1427.038208 2103.105957 1437.733521 2094.935791 1447.713867 2086.171143 C 1461.776978 2073.820801 1473.220337 2059.204834 1482.677246 2042.855347 C 1490.033447 2030.137817 1496.499023 2017.114258 1501.257202 2003.300049 C 1506.05188 1989.380615 1509.829956 1975.231934 1512.385742 1960.593506 C 1515.106201 1945.01062 1517.490601 1929.55249 1517.391113 1913.738892 C 1517.270996 1894.663086 1517.972412 1875.572144 1515.678345 1856.547974 C 1515.016113 1851.055786 1514.757813 1850.742432 1508.919556 1850.02063 C 1502.238281 1849.194946 1454.224854 1818.787476 1449.649414 1813.738525 C 1446.393311 1810.145386 1441.96228 1807.63623 1438.569336 1804.144287 C 1430.614624 1795.957397 1422.92395 1787.511353 1415.214233 1779.089722 C 1410.710571 1774.170288 1406.724365 1768.727661 1401.897583 1764.163086 C 1389.348999 1752.296509 1378.520874 1738.930542 1367.228271 1725.943237 C 1358.185059 1715.542725 1348.44458 1705.745605 1338.940186 1695.750488 C 1334.671997 1691.262207 1330.204224 1686.964355 1325.875122 1682.533203 C 1324.978638 1681.615601 1324.294678 1680.490234 1323.512695 1679.460571 C 1324.911011 1679.353027 1326.669312 1678.653564 1327.642212 1679.245361 C 1331.006714 1681.29248 1333.777954 1684.651245 1337.344849 1685.974609 C 1360.618774 1694.611206 1380.348267 1709.124023 1400.317871 1723.259033 C 1409.069946 1729.453857 1417.653564 1735.886475 1426.371826 1742.130005 C 1434.375244 1747.861572 1442.568481 1753.333252 1450.479858 1759.187622 C 1464.865479 1769.83252 1479.842773 1779.527954 1495.526611 1788.141113 C 1503.514771 1792.52771 1511.476929 1796.961792 1519.456665 1801.363647 C 1520.87561 1802.146484 1522.32312 1802.877197 1523.757324 1803.631836 C 1524.011719 1801.658081 1524.648071 1799.634521 1524.400024 1797.725952 C 1524.201172 1796.195923 1522.591797 1794.890625 1522.197754 1793.33606 C 1521.032837 1788.740601 1520.107544 1784.080688 1519.22937 1779.419678 C 1519.097046 1778.717896 1519.718262 1777.873901 1519.990845 1777.095703 C 1520.312378 1777.804688 1520.569458 1778.552979 1520.972778 1779.211792 C 1521.415161 1779.934814 1522.222534 1780.498413 1522.476685 1781.262695 C 1526.750122 1794.107666 1535.786011 1803.518677 1545.118896 1812.703369 C 1545.697754 1813.273315 1547.144653 1813.84314 1547.528076 1813.550049 C 1548.377441 1812.900513 1550.490234 1812.187744 1548.269043 1810.408691 C 1547.621216 1809.889771 1547.918579 1808.250854 1547.683838 1807.146362 C 1545.894165 1798.731934 1545.30896 1789.931641 1538.819092 1783.175537 C 1534.198853 1778.365845 1529.881958 1773.259033 1525.540039 1768.19043 C 1523.705444 1766.048462 1522.126831 1763.682861 1520.494507 1761.374756 C 1520.118408 1760.843018 1519.999512 1760.12915 1519.762451 1759.499023 C 1520.566528 1759.50769 1523.417236 1760.804321 1524.067871 1761.412476 C 1533.059204 1769.817993 1542.036987 1778.238037 1551.07312 1786.595337 C 1552.298096 1787.727905 1553.69397 1788.99585 1555.226685 1789.419922 C 1561.575684 1791.174805 1564.158569 1795.890625 1565.511719 1801.70813 C 1566.143311 1804.423584 1566.360962 1807.303955 1567.444214 1809.817505 C 1567.997803 1811.101685 1570.047119 1811.741211 1571.420288 1812.672363 C 1571.785889 1811.143311 1572.714966 1809.496582 1572.423584 1808.105225 C 1570.885498 1800.76355 1568.224731 1793.562744 1567.533936 1786.165405 C 1566.86731 1779.024048 1565.893311 1754.296143 1565.443115 1752.963379 C 1561.133545 1740.20166 1556.918579 1727.39978 1552.215332 1714.781006 C 1546.176636 1698.57959 1539.832031 1682.48877 1533.396973 1666.439453 C 1527.882324 1652.686279 1522.564575 1638.817261 1516.230713 1625.439453 C 1509.044678 1610.262573 1500.907349 1595.531372 1493.024048 1580.691162 C 1488.230469 1571.667236 1483.371826 1562.661743 1478.125732 1553.897461 C 1467.638062 1536.376465 1454.462769 1520.787842 1441.986694 1504.711182 C 1432.705566 1492.751465 1422.963501 1481.148315 1413.73999 1469.145508 C 1409.848511 1464.081543 1406.040405 1458.708252 1403.546021 1452.895508 C 1401.658569 1448.49707 1399.597778 1446.619873 1395.001587 1447.221802 C 1393.24939 1447.451172 1391.4104 1447.041992 1389.665527 1447.296509 C 1382.125122 1448.397217 1290.879395 1463.484131 1276.740356 1465.030762 C 1263.596558 1466.46875 1250.41748 1467.655762 1237.227905 1468.578369 C 1228.859131 1469.163818 1220.514893 1468.678101 1212.081543 1470.157837 C 1203.905151 1471.592773 1195.381958 1471.193848 1186.998901 1471.881226 C 1167.131836 1473.510254 1147.112671 1474.111328 1127.172607 1473.837891 C 1093.557373 1473.376709 998.297974 1471.105713 984.292236 1470.4021 C 975.619385 1469.966553 873.219177 1455.90918 864.390564 1454.453125 C 855.425781 1452.974365 846.3302 1452.278809 837.377075 1450.743652 C 829.14093 1449.331299 821.027161 1447.215088 812.842896 1445.487305 C 802.182007 1443.236572 791.479614 1441.177734 780.84198 1438.824219 C 769.983643 1436.422119 759.189087 1433.733154 748.353821 1431.225098 C 738.318481 1428.902344 728.223267 1426.821777 718.240784 1424.293457 C 713.742065 1423.153931 710.128906 1424.792847 708.62439 1428.281982 C 703.083313 1441.131592 693.054321 1450.605835 684.336121 1460.910889 C 672.934021 1474.388184 662.633606 1488.566895 652.876648 1503.207764 C 639.690979 1522.993164 626.40625 1542.713623 613.369568 1562.59668 C 607.276184 1571.890137 600.823425 1581.091064 595.990723 1591.041748 C 580.154419 1623.648926 562.61499 1655.47583 550.278564 1689.722412 C 542.614502 1710.998047 534.614258 1732.16333 529.978333 1754.361206 C 528.754517 1760.221436 527.404602 1793.23645 526.4198 1803.666382 C 526.367432 1804.220703 527.785706 1804.913818 528.519409 1805.542236 C 528.97406 1804.931885 529.749329 1804.362061 529.832825 1803.704712 C 530.516724 1798.318481 544.368774 1749.167969 545.925903 1747.61084 M 1069.09082 188.811279 C 1062.935303 185.626465 1056.685059 182.608887 1050.658081 179.197266 C 1046.768433 176.995361 1042.848755 174.606445 1039.572998 171.611572 C 1033.220825 165.804443 1026.792847 159.9375 1021.359131 153.306396 C 1015.200012 145.790039 1003.150513 124.913086 1001.621277 123.247559 C 1001.248535 122.841553 999.807983 122.851563 999.345459 123.244385 C 998.841736 123.671875 998.48645 124.999756 998.784302 125.536377 C 1002.680054 132.55127 1016.045654 169.985107 1018.994446 177.781494 C 1021.22229 183.671875 1024.519043 189.150635 1027.165405 194.892822 C 1028.531128 197.856689 1029.516602 200.99585 1030.673828 204.055664 C 1027.344971 204.917725 1024.473999 204.49292 1020.931274 203.441162 C 1009.995972 200.195068 998.661133 196.403809 987.458618 196.331055 C 961.580627 196.162598 935.658081 194.31958 909.740356 197.468262 C 898.395325 198.846436 886.893921 199.222168 875.602539 201.309082 C 869.279907 202.477783 862.971863 203.752197 856.710327 205.207275 C 855.244324 205.547852 853.993164 206.813965 852.64325 207.654297 C 854.074036 208.503174 855.446228 209.477783 856.946228 210.178467 C 862.200806 212.633057 867.720093 214.325439 873.201111 216.177734 C 881.193237 218.878906 888.25415 224.215576 896.049133 227.66748 C 900.371582 229.581665 903.731262 232.286743 907.15802 235.326782 C 916.060303 243.224365 922.052673 253.199097 927.857849 263.335571 C 928.220032 263.967896 928.224854 265.189331 927.847534 265.7948 C 926.125427 268.557983 923.513794 269.008789 920.317139 269.122437 C 902.73938 269.747681 885.191345 268.984497 867.541443 270.318726 C 848.046997 271.792358 807.042969 268.490234 806.262268 268.223389 C 806.83197 267.59314 823.315552 256.509277 831.75946 255.138672 C 846.800903 252.697144 878.459961 246.497559 879.25415 245.929443 C 878.512085 245.309204 855.937805 239.054688 846.80603 233.208008 C 841.460083 229.785156 836.021912 229.305664 830.364868 229.92627 C 823.690735 230.658447 816.909729 231.627808 810.535706 233.638306 C 796.100891 238.19104 781.55896 242.372437 767.223389 247.330444 C 748.423584 253.832397 730.74353 262.587891 712.691528 270.648315 C 695.717224 278.227417 680.028259 288.02478 663.978943 297.298096 C 643.362061 309.210571 623.365417 321.780273 604.233032 336.016357 C 585.947083 349.622681 568.383789 363.978882 552.095154 379.814209 C 537.954102 393.561646 524.635376 408.15918 511.053772 422.476318 C 504.829956 429.037231 498.810211 435.793457 492.76886 442.52478 C 488.708893 447.048584 484.450897 451.444824 480.842163 456.313721 C 469.753876 471.273926 458.188293 485.958618 448.207947 501.641113 C 436.631683 519.831299 425.980865 538.672974 415.95874 557.772583 C 405.748199 577.231445 396.752289 597.32959 387.298553 617.183228 C 382.456451 627.352173 376.953003 637.305054 373.191254 647.869385 C 364.883179 671.201172 354.126556 693.473755 344.265381 716.103027 C 332.349213 743.44812 318.072968 769.684082 301.779388 794.775879 C 291.743225 810.231445 281.537811 825.666748 268.86496 838.964233 C 252.505493 856.130127 236.031204 873.233398 217.099564 887.849365 C 205.034882 897.163574 193.046173 906.040771 178.390182 910.758057 C 174.955124 911.86377 174.51886 914.078979 177.849442 915.888062 C 185.310272 919.940552 236.751846 957.776245 237.3853 958.12915 C 236.594009 958.370483 214.096664 957.957275 205.436859 957.196777 C 203.90773 957.062256 201.498672 958.214111 203.042816 960.854492 C 205.705612 965.407593 207.842972 970.476563 211.325699 974.30603 C 227.927933 992.561401 274.745117 1030.205322 276.689484 1031.122681 C 274.42511 1031.393677 237.320358 1021.550781 236.196259 1021.705811 C 236.542404 1022.930176 244.638855 1034.6698 248.071411 1039.570557 C 256.516907 1051.628174 265.321899 1063.459473 274.478882 1074.987427 C 288.594727 1092.758301 304.025055 1109.430664 318.092346 1127.280884 C 327.146057 1138.769409 337.890839 1148.960205 348.211578 1159.402588 C 354.769897 1166.038208 362.066925 1171.937012 368.809753 1178.398804 C 381.996674 1191.036133 395.20575 1203.628052 410.10083 1214.297607 C 422.249969 1223.000488 434.22821 1231.948853 446.525787 1240.435181 C 459.181213 1249.168579 471.964386 1257.742065 485.002716 1265.887573 C 496.739899 1273.220215 508.636597 1280.384766 520.922241 1286.735107 C 552.90625 1303.267578 585.191101 1319.195313 618.841492 1332.177002 C 629.849365 1336.423584 640.51123 1341.601685 651.614624 1345.558594 C 672.341003 1352.944824 693.190796 1360.011475 714.150391 1366.706299 C 728.881592 1371.411499 743.986572 1374.94458 758.725403 1379.628174 C 770.979919 1383.522095 783.672913 1385.492432 795.955505 1388.832764 C 810.761108 1392.859131 825.838989 1395.352173 840.698486 1398.933838 C 852.19873 1401.705933 864.148254 1402.577271 875.862244 1404.509888 C 889.456665 1406.752808 902.98114 1409.43042 916.594604 1411.54248 C 926.447205 1413.071045 936.379395 1414.143799 946.304443 1415.135254 C 959.759277 1416.479126 973.228394 1417.734131 986.715942 1418.676758 C 996.266357 1419.344238 1005.802185 1419.112793 1015.421753 1420.178223 C 1031.971802 1422.01123 1048.756226 1422.144287 1065.445679 1422.216309 C 1104.122925 1422.383667 1142.813354 1423.028076 1181.460205 1420.556885 C 1194.271118 1419.737915 1207.108398 1419.332031 1219.933838 1418.742432 C 1220.526733 1418.71521 1221.288696 1418.97998 1221.690796 1418.702271 C 1226.506104 1415.373291 1231.921875 1417.579956 1237.02124 1416.968262 C 1242.41333 1416.321289 1247.808228 1415.672607 1253.216919 1415.196777 C 1260.984009 1414.513184 1268.807007 1414.313232 1276.529663 1413.314209 C 1288.01001 1411.829224 1330.603516 1408.530884 1340.458374 1406.400024 C 1349.031738 1404.546265 1358.101929 1404.772217 1366.527222 1402.501221 C 1381.478271 1398.471313 1396.892822 1397.255737 1411.91394 1393.81958 C 1419.817749 1392.011719 1427.858887 1390.794312 1435.744019 1388.916016 C 1448.151367 1385.960083 1460.558472 1382.947266 1472.816772 1379.438721 C 1483.127686 1376.487915 1493.298706 1372.998047 1503.401855 1369.384277 C 1518.399658 1364.019531 1533.379883 1358.579346 1548.189575 1352.720947 C 1564.776367 1346.159546 1581.555908 1339.89624 1597.552124 1332.073242 C 1625.013062 1318.643311 1652.025391 1304.281372 1679.032715 1289.946533 C 1690.769409 1283.717041 1702.092773 1276.694092 1713.485229 1269.834351 C 1726.581299 1261.948853 1739.431885 1253.651367 1752.599609 1245.890137 C 1765.830078 1238.092041 1777.785522 1228.632568 1789.491577 1218.804321 C 1794.14624 1214.895996 1798.86792 1211.035522 1803.218872 1206.803345 C 1812.764404 1197.518677 1822.096191 1188.014282 1831.50769 1178.591919 C 1834.626587 1175.469238 1837.674805 1172.27417 1840.853149 1169.213379 C 1842.081299 1168.030518 1843.57959 1167.128174 1844.954834 1166.098145 C 1842.96228 1165.991699 1840.953491 1165.692993 1838.983887 1165.858765 C 1837.981689 1165.943115 1812.9646 1174.033203 1810.510132 1174.479492 C 1809.78125 1174.612183 1808.930054 1174.072266 1808.134766 1173.840576 C 1808.634277 1173.210449 1809.039063 1172.4552 1809.659546 1171.984985 C 1810.297119 1171.502075 1811.121094 1171.216187 1811.905151 1170.983032 C 1821.957764 1167.993652 1832.044067 1165.112183 1842.055176 1161.989868 C 1844.117065 1161.346802 1846.155396 1160.110229 1847.779053 1158.668091 C 1854.984131 1152.267456 1861.991089 1145.644409 1869.157837 1139.199707 C 1873.015747 1135.730469 1877.086426 1132.498535 1880.969727 1129.056519 C 1881.58728 1128.508911 1882.224121 1126.901001 1881.988281 1126.671875 C 1881.240845 1125.94519 1881.052002 1124.191528 1878.80249 1125.626099 C 1876.550049 1127.062622 1831.834717 1102.518677 1815.972778 1097.871338 C 1815.148315 1097.629761 1814.421387 1097.054077 1813.64917 1096.633911 C 1814.467529 1096.457886 1815.279297 1096.169067 1816.104858 1096.122925 C 1826.554199 1095.539551 1890.895996 1090.146729 1896.710327 1089.555542 C 1897.901855 1089.434448 1899.154053 1089.914551 1900.378174 1090.11731 C 1899.914917 1088.893066 1899.761597 1087.384888 1898.940552 1086.488281 C 1890.827515 1077.629028 1882.750732 1068.727661 1874.372437 1060.121948 C 1864.802734 1050.292725 1856.627686 1039.338745 1850.930664 1027.020996 C 1844.95105 1014.091675 1838.57373 1001.343384 1833.74585 987.786133 C 1828.404419 972.786865 1822.033081 958.15918 1817.604004 942.789063 C 1815.00647 933.775269 1811.997192 924.888062 1809.42334 915.848755 C 1806.607178 905.958984 1804.216309 896.022827 1801.838501 886.035645 C 1797.667969 868.517578 1792.856079 851.152588 1788.335083 833.717651 C 1785.34314 822.179443 1782.175659 810.680908 1779.479248 799.073486 C 1776.824707 787.645264 1774.814819 776.068359 1772.230469 764.622559 C 1770.77063 758.158081 1768.555176 751.867554 1766.97583 745.426392 C 1763.620239 731.739624 1756.484131 719.185913 1754.779907 705.049194 C 1754.351929 701.497925 1752.773315 697.401611 1756.154175 694.275391 C 1762.540039 688.371094 1769.406982 682.935791 1775.377686 676.644653 C 1787.828735 663.526123 1799.852295 650.001221 1811.993896 636.591064 C 1815.874146 632.305298 1820.062134 628.183716 1823.263184 623.418823 C 1833.865479 607.635986 1845.483765 592.637329 1855.270508 576.1698 C 1868.573364 553.786011 1880.943237 530.974609 1891.100342 507.158203 C 1899.706299 486.979004 1907.454712 466.264526 1912.775024 444.852295 C 1915.599487 433.485596 1918.599731 422.055786 1919.987305 410.470825 C 1921.208374 400.276123 1922.774414 389.987305 1924.430908 379.997559 C 1926.677368 366.451416 1927.176025 352.809082 1928.790161 339.286377 C 1930.491089 325.036255 1928.536011 310.496948 1927.535767 296.079834 C 1926.586792 282.399292 1927.219604 268.664307 1925.947998 254.908569 C 1925.103638 245.773438 1923.191528 236.911133 1921.846191 227.925415 C 1921.471191 225.421631 1919.47229 221.809204 1917.420776 221.13623 C 1907.172485 217.77417 1897.881592 212.290527 1887.881958 208.492676 C 1874.207642 203.299561 1860.087524 199.476318 1846.069092 195.299561 C 1822.682129 188.331543 1798.955811 183.518555 1774.930786 180.041016 C 1761.277344 178.064941 1747.415649 176.562988 1733.649292 176.576172 C 1716.381836 176.592529 1699.087524 174.855225 1681.758423 177.846191 C 1672.431763 179.455811 1662.683594 178.003906 1653.102539 179.730713 C 1642.43811 181.652588 1631.283081 181.207764 1620.805176 183.723877 C 1606.513794 187.155518 1592.062866 189.882324 1577.840698 193.806885 C 1561.84668 198.220459 1545.885864 202.405029 1530.326782 208.302734 C 1509.775635 216.092529 1489.177856 223.720215 1469.419922 233.39563 C 1455.088013 240.413818 1440.733887 247.404785 1426.631958 254.865723 C 1420.10376 258.31958 1413.22644 262.369751 1410.730835 269.727905 C 1409.496094 273.368286 1407.696167 273.072998 1405.862671 272.312134 C 1399.524902 269.682129 1393.203735 266.90918 1387.197388 263.606689 C 1376.523315 257.737671 1366.096313 251.42041 1355.543701 245.329346 C 1341.401001 237.165771 1327.639282 228.196411 1312.94519 221.184082 C 1302.669556 216.280518 1272.855225 202.868164 1271.444702 198.849121 C 1271.283447 198.389648 1268.958252 198.21875 1267.969482 198.660156 C 1267.079102 199.057617 1261.765991 210.49292 1259.229736 209.510254 C 1258.216064 209.117432 1257.50354 207.919678 1256.682983 207.060547 C 1245.256348 195.099609 1232.279053 184.977051 1219.255493 174.843018 C 1203.387817 162.49585 1187.744385 149.876953 1170.79895 138.996094 C 1165.628906 135.67627 1160.585205 132.150146 1155.306152 129.017578 C 1154.092285 128.297119 1152.147461 128.808594 1150.539063 128.75293 C 1150.939575 129.977295 1151.186157 131.280518 1151.765015 132.413818 C 1157.289917 143.231445 1152.892456 170.590332 1145.658936 167.173584 C 1123.778564 156.838867 1102.26709 145.722656 1080.373413 135.41748 C 1061.995361 126.766846 1043.389526 118.572998 1024.665527 110.697998 C 1017.332703 107.614014 1009.423828 105.873291 1001.719055 103.730469 C 1000.678345 103.441162 999.195313 104.2146 998.131348 104.853027 C 997.804077 105.049316 997.862793 106.704346 998.299744 107.231201 C 1001.990967 111.681152 1005.897888 115.952393 1009.573792 120.414551 C 1017.40509 129.920654 1025.061157 139.572021 1032.931763 149.045166 C 1039.754028 157.256836 1046.556519 165.50415 1053.779175 173.357422 C 1058.820679 178.839355 1064.556396 183.682617 1069.09082 188.811279 M 597.61853 218.222412 C 611.69281 232.890869 625.720764 247.604126 639.867554 262.202148 C 644.500916 266.983276 646.576538 266.738403 651.528259 262.432495 C 655.386108 259.077637 659.395325 255.823608 663.670227 253.0354 C 677.441833 244.053101 691.475037 235.470337 705.205933 226.427612 C 721.441101 215.73584 739.202881 208.276123 757.212158 201.354736 C 765.935059 198.002197 774.928345 195.354004 783.794861 192.373779 C 789.405762 190.487793 789.751465 189.179688 785.375366 185.031982 C 783.553711 183.305176 781.122314 182.231689 779.248047 180.549316 C 763.360718 166.289307 745.605896 154.511719 728.279846 142.173828 C 719.149902 135.672363 709.992371 129.154541 700.429382 123.330078 C 688.393311 115.999756 675.440796 110.098633 663.77124 102.259766 C 648.276917 91.851563 631.330627 84.126953 614.422241 77.135986 C 596.490234 69.721924 577.979187 63.199463 559.052979 57.914307 C 539.690369 52.507324 520.12793 48.400635 500.487671 44.646973 C 488.133301 42.285889 475.38205 41.243164 462.790985 41.091553 C 450.29007 40.941162 397.054291 44.508057 382.988556 45.901367 C 371.122345 47.076904 362.470734 52.006104 357.120605 61.944092 C 349.442444 76.206299 342.441559 90.879395 337.416321 106.341309 C 331.880493 123.374512 325.766083 140.298828 321.622314 157.680176 C 318.23877 171.873047 314.324432 186.139404 314.116302 200.99707 C 314.032257 206.996338 309.624268 241.238525 309.204132 252.268066 C 308.192871 278.817261 308.248932 305.429932 312.248932 331.901855 C 314.02298 343.642212 315.74588 355.391724 317.502014 367.130737 C 320.363708 386.260132 325.276306 404.922485 330.755219 423.245239 C 339.32373 451.900513 350.435425 479.754883 363.641693 506.731445 C 369.17749 518.039429 376.333191 528.771973 378.451141 541.601318 C 378.657471 542.850952 379.988556 543.915039 380.797546 545.065308 C 381.176849 543.604492 382.025726 542.085571 381.853302 540.693115 C 381.152466 535.035278 382.834503 529.99939 385.536499 525.247437 C 387.73642 521.378418 400.282745 498.835327 406.636719 492.989502 C 409.441803 490.408813 409.346497 487.730225 407.618164 484.45813 C 403.249329 476.186768 398.883636 467.892944 395.023315 459.378418 C 388.903839 445.881104 382.654694 432.399414 377.470062 418.533691 C 372.363342 404.876099 368.141022 390.852295 364.231201 376.794434 C 361.247162 366.065308 358.943085 355.101318 357.10022 344.113647 C 355.354919 333.707886 355.704712 322.85437 353.11554 312.712891 C 350.354034 301.896484 351.765411 290.996826 350.404572 280.178101 C 348.868439 267.965942 349.85675 255.242188 351.14389 242.61499 C 352.768311 226.679443 354.33844 210.809814 356.712769 194.933105 C 359.093933 179.01123 363.498383 164.141113 371.190582 150.054688 C 380.711578 132.619385 395.824158 125.055176 414.998413 124.748535 C 420.979614 124.652832 441.849335 127.856445 446.096649 129.18335 C 455.807892 132.217529 465.355621 135.771484 475.046509 138.874756 C 499.432404 146.684082 521.79248 158.794434 542.916016 172.82666 C 559.941956 184.136719 575.636658 197.463867 589.949585 212.245361 C 591.890015 214.249512 594.452698 215.650879 597.61853 218.222412 M 1782.983643 1549.75293 C 1790.707642 1559.332397 1798.838379 1568.616211 1806.066284 1578.556641 C 1818.647339 1595.859131 1827.921997 1615.161377 1838.23584 1633.825684 C 1846.560547 1648.890137 1850.994019 1665.433105 1855.927002 1681.735107 C 1858.028931 1688.680908 1858.70105 1696.074097 1859.834717 1703.293457 C 1860.542725 1707.803101 1860.565796 1712.438232 1861.505371 1716.888428 C 1862.493896 1721.570923 1862.657349 1732.920044 1863.300293 1733.275879 C 1863.827759 1733.567871 1865.347656 1733.096924 1865.680298 1732.52771 C 1866.922729 1730.401367 1902.94812 1689.462158 1919.945068 1671.243286 C 1927.329834 1663.327759 1934.436646 1655.140259 1942.053345 1647.456665 C 1956.569336 1632.814209 1967.287476 1615.40625 1978.543945 1598.376221 C 1982.000732 1593.146362 1981.626709 1588.963135 1977.455444 1583.80127 C 1972.418335 1577.568237 1967.4552 1571.273438 1962.31665 1565.125 C 1949.762695 1550.104004 1937.655396 1534.663818 1924.395874 1520.289673 C 1905.785156 1500.11499 1886.416748 1480.631958 1867.144409 1461.077881 C 1846.709473 1440.344238 1826.074219 1419.806396 1805.381348 1399.32959 C 1799.168823 1393.182129 1792.741455 1387.187378 1785.927124 1381.728271 C 1777.105835 1374.661133 1767.768555 1368.240479 1758.707397 1361.469116 C 1746.674561 1352.476807 1734.822632 1343.235596 1722.628784 1334.468628 C 1717.602905 1330.855225 1712.117554 1329.055664 1706.222778 1333.958252 C 1703.349731 1336.347656 1699.358887 1337.364014 1695.942993 1339.135254 C 1678.578125 1348.138916 1661.321167 1357.355225 1643.860474 1366.168579 C 1627.676147 1374.337891 1611.572632 1382.680298 1594.498779 1388.998535 C 1585.761963 1392.231445 1543.956299 1409.650879 1537.921265 1411.616943 C 1520.129395 1417.413086 1502.397827 1423.394287 1484.611938 1429.208618 C 1476.753052 1431.777588 1468.812134 1434.093628 1460.92688 1436.58313 C 1459.099243 1437.160034 1457.346802 1437.975342 1455.55957 1438.68103 C 1456.44873 1440.535522 1457.090576 1442.56665 1458.268188 1444.21521 C 1464.832275 1453.404297 1471.509033 1462.513428 1478.182983 1471.623779 C 1481.362671 1475.9646 1484.624634 1480.245117 1487.842896 1484.557739 C 1489.680908 1487.020508 1491.364258 1487.035645 1493.436646 1484.635498 C 1501.769165 1474.984863 1510.168823 1465.391113 1518.640259 1455.862305 C 1521.201782 1452.981201 1524.569946 1450.717285 1526.719849 1447.587524 C 1535.542358 1434.745239 1546.948608 1424.296631 1557.615479 1413.138428 C 1562.136841 1408.408691 1567.743774 1406.516968 1573.308594 1408.24353 C 1589.037964 1413.123657 1604.787231 1418.153076 1619.567139 1425.599854 C 1629.656006 1430.683105 1639.794312 1435.723145 1649.546509 1441.407104 C 1662.276611 1448.827148 1674.834961 1456.580933 1687.114136 1464.723877 C 1697.451172 1471.578613 1707.42395 1479.01001 1717.299561 1486.525879 C 1727.299316 1494.13623 1737.554443 1501.557007 1746.659058 1510.160156 C 1758.178711 1521.045532 1768.672607 1533.019287 1779.535645 1544.592529 C 1780.644897 1545.774414 1781.252197 1547.427368 1782.983643 1549.75293 M 2087.791992 1059.564331 C 2087.197754 1045.557251 2086.687256 1031.545654 2085.903564 1017.549072 C 2085.805176 1015.78833 2084.268311 1014.108032 2083.397705 1012.390381 C 2083.080078 1013.998535 2081.250732 1019.1073 2080.905273 1020.137939 C 2078.274658 1027.988525 2072.193115 1033.430664 2066.92041 1039.231934 C 2052.536621 1055.057129 2036.001343 1068.632324 2020.166016 1082.957031 C 2005.980347 1095.789551 1991.356689 1107.846069 1974.087891 1116.006348 C 1957.643799 1123.776855 1947.262085 1138.377319 1933.764038 1149.427002 C 1933.535522 1149.614136 1933.321899 1149.827637 1933.135132 1150.056274 C 1927.883911 1156.48938 1923.253052 1163.586182 1917.239502 1169.202026 C 1908.915161 1176.975708 1899.587891 1183.683228 1890.615723 1190.752808 C 1885.946533 1194.432007 1881.024536 1197.792847 1876.394653 1201.518433 C 1873.36145 1203.959229 1873.944458 1207.033936 1877.297485 1208.422119 C 1882.872803 1210.730469 2070.268311 1361.593384 2075.039307 1367.58606 C 2076.7771 1369.768677 2078.249756 1369.922363 2078.924316 1366.464233 C 2082.993164 1345.605957 2087.616211 1324.845947 2091.196045 1303.90625 C 2093.268555 1291.783691 2094.292969 1279.408203 2094.781738 1267.106689 C 2095.408936 1251.323242 2095.315186 1235.540894 2096.400879 1219.734009 C 2097.294189 1206.722412 2095.400391 1193.531494 2094.948975 1180.412842 C 2094.25293 1160.177246 2092.986328 1094.43396 2089.806885 1082.811401 C 2087.938965 1075.983765 2088.38623 1068.522949 2087.791992 1059.564331 M 1561.953125 1615.705566 C 1566.990479 1627.873047 1572.182007 1639.979614 1577.023804 1652.224609 C 1582.271118 1665.495117 1588.099609 1678.634399 1592.024048 1692.304932 C 1596.841797 1709.087158 1601.377563 1725.977539 1605.161621 1743.096924 C 1608.288574 1757.242188 1609.58374 1771.514771 1611.608521 1785.706543 C 1613.273315 1797.373657 1611.419434 1809.179688 1608.381104 1820.738647 C 1604.811157 1834.319946 1598.529785 1846.532227 1590.56897 1857.890503 C 1585.982422 1864.434814 1580.482788 1870.333008 1575.616943 1876.692505 C 1574.724121 1877.859497 1574.901733 1879.845459 1574.585205 1881.453125 C 1576.193115 1881.52478 1577.939697 1882.044434 1579.386597 1881.596191 C 1589.900879 1878.338867 1600.426392 1875.089966 1610.80835 1871.439697 C 1621.940186 1867.525879 1633.050171 1863.490601 1643.932739 1858.941406 C 1659.118652 1852.593262 1674.853027 1847.610596 1689.414429 1839.652832 C 1696.84021 1835.594849 1699.84375 1833.084717 1697.245361 1826.291748 C 1693.504761 1816.512329 1692.688599 1806.175537 1690.034546 1796.286133 C 1684.195068 1774.529053 1677.946777 1752.833984 1667.213379 1732.718506 C 1658.577515 1716.534668 1650.950317 1699.857178 1639.092163 1685.545532 C 1632.077881 1677.079956 1626.184326 1667.695801 1619.414795 1659.014648 C 1613.40271 1651.304321 1607.181274 1643.709717 1600.50415 1636.577148 C 1591.782959 1627.260742 1582.521973 1618.449463 1573.49353 1609.420898 C 1563.834961 1599.762207 1554.208252 1590.071289 1544.453735 1580.51062 C 1543.717529 1579.788818 1542.069946 1579.996582 1540.846191 1579.772461 C 1541.077148 1580.786377 1540.967407 1582.142456 1541.590332 1582.762817 C 1550.72229 1591.857788 1555.30835 1603.687622 1561.953125 1615.705566 M 732.197571 2185.215576 C 728.186279 2188.559814 725.695679 2192.278809 727.659912 2197.936523 C 728.933594 2201.605469 732.682495 2200.253418 734.506714 2201.974609 C 740.636169 2207.758301 748.138062 2210.096191 755.897705 2212.787109 C 771.168579 2218.08252 785.069702 2215.173828 799.288879 2209.194336 C 815.343079 2202.443604 828.607971 2191.280518 843.453979 2182.651855 C 844.197571 2182.219482 845.35907 2181.029053 845.251343 2180.854492 C 844.651001 2179.880859 843.845093 2178.613281 842.876343 2178.368164 C 840.152039 2177.679443 837.167542 2177.859375 834.548218 2176.944824 C 826.787476 2174.234619 819.316345 2170.587891 811.435608 2168.352295 C 795.279846 2163.77002 780.426147 2155.575928 763.778564 2152.134521 C 758.465088 2151.036133 756.141846 2153.13916 754.663818 2155.913818 C 748.973328 2166.595947 741.609253 2175.864502 732.197571 2185.215576 M 1372.116455 2226.213135 C 1383.103149 2230.909424 1394.709229 2229.738525 1406.178101 2229.748291 C 1409.633057 2229.750977 1409.445679 2228.092285 1407.535034 2225.981445 C 1402.025146 2219.895508 1399.595825 2211.701416 1393.233643 2206.043457 C 1389.553467 2202.770264 1387.199585 2197.988525 1384.319702 2193.837158 C 1380.448975 2188.258057 1380.80127 2186.680908 1386.309204 2183.462402 C 1387.316284 2182.874023 1388.141235 2181.973877 1389.050293 2181.218018 C 1387.553711 2180.779053 1385.876465 2179.685791 1384.598877 2180.038574 C 1381.998169 2180.756836 1379.628174 2183.218994 1377.136475 2183.258057 C 1368.537598 2183.392334 1360.341064 2185.803223 1351.942139 2186.835938 C 1340.458374 2188.247559 1316.661743 2192.666504 1316.249878 2192.993652 C 1315.558594 2193.54248 1314.976074 2194.228516 1314.347778 2194.856689 C 1314.9823 2195.207764 1315.599365 2195.595947 1316.254028 2195.904297 C 1319.970581 2197.654541 1324.149414 2198.793945 1327.335083 2201.232666 C 1337.539307 2209.044678 1348.29248 2215.846436 1359.967285 2221.210205 C 1363.453125 2222.811523 1366.880127 2224.541992 1372.116455 2226.213135 M 1404.201538 2172.738037 C 1397.992554 2176.328125 1397.932861 2176.361084 1401.075928 2182.063477 C 1404.143799 2187.629639 1407.0177 2193.345459 1410.578369 2198.58667 C 1415.501343 2205.833252 1420.9552 2212.72168 1426.252441 2219.709961 C 1427.893555 2221.875 1430.021606 2223.713867 1432.914429 2222.364258 C 1435.911377 2220.966064 1439.158813 2219.559082 1441.44873 2217.297363 C 1447.432739 2211.386475 1450.736084 2205.328613 1448.344238 2195.55542 C 1445.554077 2184.154785 1442.076538 2173.302246 1437.397095 2162.609863 C 1435.984375 2159.38208 1435.95105 2161.185791 1434.460205 2161.9729 C 1429.607178 2164.535889 1424.802612 2167.696777 1419.580933 2168.903076 C 1414.957886 2169.970947 1409.994873 2169.472168 1404.201538 2172.738037 M 1364.095215 1710.178345 C 1364.45166 1710.416016 1364.808228 1710.653564 1365.164673 1710.891357 C 1365.105225 1710.356445 1365.045776 1709.821899 1364.095215 1710.178345 M 801.715271 2245.820801 C 801.952881 2245.464355 802.190552 2245.107666 802.428223 2244.751221 C 801.893494 2244.810791 801.358765 2244.870117 801.715271 2245.820801 Z"/>
        <path id="path1" fill="#000000" stroke="none" d="M 1765.604248 593.885254 C 1758.858643 601.225098 1752.900391 608.476807 1746.163208 614.913574 C 1739.31665 621.455078 1731.782471 627.293091 1724.378784 633.226318 C 1721.93396 635.185547 1721.40564 632.471436 1720.597656 630.939331 C 1714.941528 620.214966 1709.485352 609.379395 1703.587158 598.789917 C 1696.449585 585.975708 1688.420532 573.636475 1681.710449 560.61084 C 1671.334351 540.468628 1658.96582 521.656616 1645.71582 503.368408 C 1637.591797 492.155762 1629.541016 480.878906 1621.062256 469.937256 C 1609.518066 455.039917 1597.697998 440.352173 1585.788818 425.743896 C 1580.830566 419.661987 1575.392456 413.965332 1570.074219 408.184082 C 1562.144409 399.563721 1554.088623 391.05896 1546.181274 382.418335 C 1544.683716 380.781738 1543.094116 378.893433 1542.510254 376.846558 C 1541.86438 374.581909 1570.060303 347.883545 1576.63916 342.136597 C 1587.470825 332.674683 1599.596558 325.050171 1612.021729 317.888916 C 1619.69165 313.468506 1627.45813 309.209473 1635.042358 304.646973 C 1651.38208 294.817261 1669.406372 288.651733 1686.653687 280.808472 C 1698.469727 275.435059 1711.216064 272.633423 1723.662231 269.08606 C 1734.587402 265.972046 1745.663574 263.387451 1756.67627 260.581299 C 1757.489746 260.373901 1758.325073 260.153809 1759.156128 260.127808 C 1778.807617 259.512451 1798.518677 257.745728 1818.092773 258.720215 C 1832.441284 259.434692 1847.028687 263.19751 1857.911377 273.87085 C 1862.382324 278.255737 1866.069946 284.079102 1868.354736 289.93457 C 1875.450073 308.119019 1876.687988 327.310181 1875.566528 346.596313 C 1874.988647 356.534302 1873.552246 366.446289 1872.050537 376.301025 C 1869.693115 391.766479 1866.473145 407.069824 1862.440186 422.197876 C 1856.608521 444.072388 1847.881104 464.801025 1838.334595 485.279053 C 1829.531494 504.162109 1819.023804 522.072754 1807.444336 539.253296 C 1796.994751 554.757568 1784.969604 569.20105 1773.600708 584.08313 C 1771.168701 587.266724 1768.571045 590.324097 1765.604248 593.885254"/>
        <path id="path2" fill="#000000" stroke="none" d="M 1339 1098 C 1323.66748 1100.284302 1292.00708 1096.898315 1277.124878 1092.714355 C 1255.901001 1086.747437 1237.550171 1075.532837 1219.903687 1063.08667 C 1206.246704 1053.454224 1195.562134 1040.912109 1187.655762 1025.912231 C 1181.366821 1013.980835 1178.797974 1000.998779 1175.188965 988.29187 C 1170.851196 973.018311 1170.623413 957.233276 1171.821411 941.675293 C 1173.169678 924.16333 1174.872803 906.428589 1179.077148 889.448364 C 1184.617554 867.072388 1191.259644 844.528687 1203.972412 825.035522 C 1212.771973 811.542603 1222.261108 798.314697 1235.713501 788.162109 C 1247.895264 778.968262 1260.201294 770.623901 1274.674438 765.819458 C 1283.250122 762.972778 1291.921997 760.206299 1301.197754 760.993774 C 1311.628662 761.879395 1322.007446 760.398193 1332.604004 762.451904 C 1347.86731 765.40979 1361.872803 770.606689 1374.908813 778.821167 C 1385.59314 785.553955 1395.724243 793.122437 1404.295776 802.342407 C 1410.84375 809.386353 1416.363159 817.421631 1422.029663 825.240967 C 1429.692261 835.814941 1436.565918 846.949219 1441.516357 859.040039 C 1448.081787 875.074707 1454.623291 891.05896 1458.856201 908.048706 C 1463.096313 925.067261 1464.731445 942.099854 1463.753784 959.365845 C 1462.995483 972.759766 1460.044189 985.955688 1454.922852 998.426025 C 1449.670166 1011.215942 1444.091064 1023.868652 1435.443115 1034.932373 C 1425.986938 1047.030029 1416.16687 1058.56665 1403.958252 1068.200317 C 1395.489258 1074.883057 1387.368896 1081.956665 1377.713623 1086.802856 C 1371.522827 1089.910278 1362.092041 1094.559692 1339 1098 Z M 1271.405029 916.964111 C 1302.218872 933.321533 1320.639893 915.978394 1326.991211 908.760376 C 1334.877563 899.798462 1341.182007 889.529663 1343.186646 876.354248 C 1346.060547 857.466431 1344.598267 840.055176 1333.506104 824.677368 C 1328.703735 818.019409 1323.351196 810.756226 1313.59668 808.911133 C 1304.716797 807.231567 1296.683594 806.045288 1288.036377 810.648926 C 1281.907959 813.911621 1276.422607 817.441895 1271.469604 822.270996 C 1265.676636 827.919189 1261.459717 834.485718 1257.636963 841.508301 C 1253.450073 849.199585 1250.218018 857.113159 1250.054565 865.959106 C 1249.932007 872.581543 1250.022949 879.108276 1251.633545 885.736572 C 1254.630981 898.072266 1258.797852 910.271606 1271.405029 916.964111 Z"/>
        <path id="path3" fill="#000000" stroke="none" d="M 643.518005 1015.447388 C 631.739075 1015.29895 620.34906 1015.219971 609.086792 1013.980591 C 594.878113 1012.41687 581.295654 1007.516602 569.865234 999.284302 C 554.961548 988.550659 542.821167 974.723999 533.891907 958.40271 C 527.246338 946.255859 521.655273 933.31311 519.623779 919.891235 C 517.186646 903.789429 516.689819 887.108398 517.773682 870.839355 C 518.861633 854.508423 521.971863 838.216675 528.020386 822.661011 C 535.697266 802.917603 545.943115 784.759644 557.967468 767.309692 C 567.220947 753.880981 578.862915 742.930542 590.419861 731.895996 C 609.517822 713.661499 632.023987 700.638672 658.008179 695.462158 C 666.405884 693.789185 675.727356 694.664795 684.87561 696.424805 C 698.923706 699.127441 711.317139 704.550171 722.838989 712.483032 C 735.567627 721.24707 744.897339 732.949829 753.193909 746.001709 C 763.316101 761.925537 768.345886 779.635864 773.514893 797.279541 C 776.196106 806.431519 776.868225 816.288574 777.507935 825.889771 C 778.157837 835.644531 777.615112 845.476196 777.658569 855.27417 C 777.77002 880.410767 773.370361 904.916382 764.863098 928.376831 C 760.502625 940.401489 757.088013 952.994751 749.310242 963.836792 C 741.886169 974.185913 733.281982 982.871948 722.306824 989.107056 C 708.658936 996.860718 694.340149 1003.383179 679.345337 1007.890991 C 667.857666 1011.344482 656.118591 1014.446411 643.518005 1015.447388 M 709.916321 751.191162 C 700.341064 741.949829 689.297424 738.647339 676.474792 743.195068 C 667.333618 746.437134 659.328003 752.064453 652.840515 758.81189 C 645.182007 766.7771 639.581726 776.773438 637.006592 787.67688 C 634.578613 797.957397 633.334412 808.31189 634.692078 819.267578 C 636.327209 832.462036 641.757751 842.418091 652.809021 848.993652 C 665.858582 856.758545 680.150024 859.53125 693.834167 851.619629 C 701.967834 846.91748 709.178528 839.789307 713.348511 831.004883 C 720.404236 816.141479 725.820862 801.100342 722.750854 783.69104 C 720.708862 772.11145 718.016846 761.415161 709.916321 751.191162"/>
        <path id="path4" fill="#000000" stroke="none" d="M 860.092224 1033.272461 C 854.305969 1025.043457 848.726379 1017.34314 845.435974 1008.428101 C 835.607666 981.799561 848.249634 965.525024 868.824829 955.276855 C 876.898193 951.255615 885.717407 950.036377 894.375305 948.124756 C 909.484253 944.78894 924.854126 945.785278 939.944702 946.720337 C 956.285583 947.732788 972.452576 951.119263 987.86145 957.632935 C 1000.451599 962.955078 1012.151794 969.272949 1021.687378 979.190552 C 1026.371704 984.0625 1028.592285 989.638306 1029.21814 996.633911 C 1030.277222 1008.473145 1025.162476 1016.730347 1017.528259 1024.939697 C 1005.882202 1037.463257 992.492432 1047.323975 977.053711 1054.322144 C 966.319763 1059.18811 955.297363 1063.473267 944.215027 1067.498413 C 935.200684 1070.772705 933.12854 1072.552856 932.798889 1081.995117 C 932.477966 1091.188965 932.539551 1100.409058 932.84906 1109.603516 C 932.937744 1112.238525 933.750427 1115.500732 935.459839 1117.322388 C 945.300049 1127.809937 955.591309 1137.709229 968.71106 1144.369873 C 977.179932 1148.669312 985.446838 1151.659424 995.225403 1151.569824 C 1009.30365 1151.440552 1021.437805 1146.216309 1032.894653 1139.162354 C 1038.490845 1135.716797 1043.236206 1130.739624 1047.898926 1125.996094 C 1049.925293 1123.934814 1051.300049 1120.853882 1052.050537 1117.994507 C 1053.762695 1111.471313 1057.768311 1108.527344 1064.686279 1109.539185 C 1066.06665 1109.741089 1081.075562 1116.784302 1078.444946 1124.073853 C 1072.451294 1140.682739 1063.726074 1155.105469 1046.191772 1162.103638 C 1037.531616 1165.560181 1029.119019 1169.634277 1020.47821 1173.142822 C 1016.916931 1174.588989 986.692993 1177.641968 975.267944 1174.736694 C 958.55896 1170.488159 943.87616 1163.153687 931.586609 1151.093018 C 925.297485 1144.921265 925.544556 1145.276611 917.28949 1149.47168 C 908.497192 1153.939697 900.087646 1159.716797 890.028625 1161.000854 C 876.056458 1162.784302 862.343018 1163.276367 848.628052 1157.63501 C 837.485168 1153.052002 828.310181 1146.581909 820.223022 1137.927246 C 816.704407 1134.161743 812.107422 1131.416992 808.489258 1127.729004 C 798.077881 1117.116699 793.062988 1104.257446 793.721008 1089.348755 C 794.064148 1081.575928 799.198181 1077.34375 806.770081 1078.28064 C 810.678467 1078.76416 817.077637 1085.186768 816.679871 1089.792114 C 815.999634 1097.667358 819.854187 1103.796631 824.218567 1108.936401 C 830.917297 1116.825195 837.779297 1124.680176 847.118408 1130.154907 C 857.966736 1136.514526 868.806641 1138.750488 880.960938 1135.371338 C 891.472351 1132.449097 900.889221 1127.909912 908.341797 1119.676514 C 911.340637 1116.363647 912.590271 1112.784668 913.332703 1108.310303 C 914.94458 1098.593262 912.368896 1089.077759 913.072998 1079.46106 C 913.494263 1073.707275 910.586914 1069.901978 905.33252 1067.539429 C 900.319763 1065.285522 895.509827 1062.585449 890.5578 1060.191162 C 878.078308 1054.157837 870.516602 1042.572144 860.092224 1033.272461 M 903.457581 994.423706 C 914.714844 995.505371 926.239014 996.031982 937.318481 992.652222 C 944.952026 990.323853 956.653076 988.219238 956.937439 980.063477 C 957.089966 975.688843 935.621948 970.34314 924.845093 968.920776 C 912.834839 967.335571 901.741943 968.176636 890.655518 971.563477 C 887.122375 972.642944 882.310303 977.578003 882.027588 982.018433 C 881.5979 988.76709 897.756958 993.875977 903.457581 994.423706 Z"/>
    </g>
</svg>
